# xmcd
#
# Track frame offsets:
#	150
#	15775
#	27220
#	48737
#	65475
#	84555
#	105112
#	122687
#	147437
#	163427
#	181357
#	204420
#	225777
#
# Disc length: 3289 seconds
#
# Revision: 5
# Processed by: cddbd v1.5.2PL0 Copyright (c) Steve Scherf et al.
# Submitted via: audiograbber 1.83.01
#
DISCID=a00cd70d
DTITLE=Jody Stecher and Kate Brislin - Our Town
DYEAR=1993
DGENRE=Country
TTITLE0=Going To The West
TTITLE1=Home
TTITLE2=Old Country Stomp
TTITLE3=In Between Dreams
TTITLE4=The Showerhead Reel/The Twisted Arm/Big John McNeil
TTITLE5=Too Late, Too Late
TTITLE6=The Bramble And The Rose
TTITLE7=Our Town
TTITLE8=Twilight Is Stealing
TTITLE9=Curtains Of Night
TTITLE10=Queen Of The Earth And Child Of The Stars/Roving On Last Winter's Nigh
TTITLE10=t
TTITLE11=Henry And The True Machine
TTITLE12=Won't You Come And Sing For Me
EXTD=
EXTT0=
EXTT1=
EXTT2=
EXTT3=
EXTT4=
EXTT5=
EXTT6=
EXTT7=
EXTT8=
EXTT9=
EXTT10=
EXTT11=
EXTT12=
PLAYORDER=
